<svg width="173" height="26" viewBox="0 0 173 26" fill="none" xmlns="http://www.w3.org/2000/svg">
<path d="M6.23438 25H0.734375V0.9375H6.23438V25ZM24.3281 23.2969C22.3802 24.6406 20.2604 25.3125 17.9688 25.3125C16.2396 25.3125 14.6823 24.9479 13.2969 24.2188C11.9219 23.4792 10.8333 22.4792 10.0312 21.2188C9.22917 19.9479 8.82812 18.5208 8.82812 16.9375C8.82812 15.4271 9.1875 14.0833 9.90625 12.9062C10.625 11.7188 11.6042 10.7812 12.8438 10.0938C14.0938 9.40625 15.5052 9.0625 17.0781 9.0625C18.7135 9.0625 20.151 9.44271 21.3906 10.2031C22.6302 10.9635 23.5938 12.0208 24.2812 13.375C24.9792 14.7188 25.3281 16.2812 25.3281 18.0625V18.5625H14.3281C14.5156 19.0729 14.7969 19.526 15.1719 19.9219C15.5573 20.3177 16.0365 20.6354 16.6094 20.875C17.1823 21.1042 17.8385 21.2188 18.5781 21.2188C20.1094 21.2188 21.5469 20.724 22.8906 19.7344L24.3281 23.2969ZM14.1094 16.25H20.6094C20.5469 15.6667 20.3698 15.151 20.0781 14.7031C19.7865 14.2552 19.401 13.9062 18.9219 13.6562C18.4531 13.4062 17.9271 13.2812 17.3438 13.2812C16.75 13.2812 16.224 13.4167 15.7656 13.6875C15.3177 13.9479 14.9479 14.3021 14.6562 14.75C14.375 15.1875 14.1927 15.6875 14.1094 16.25ZM42.3125 25H37.8281L37.5625 23.2188C36.9896 23.8854 36.2917 24.401 35.4688 24.7656C34.6458 25.1302 33.7396 25.3125 32.75 25.3125C31.6667 25.3125 30.7031 25.1042 29.8594 24.6875C29.0156 24.2708 28.349 23.6979 27.8594 22.9688C27.3802 22.2292 27.1406 21.3906 27.1406 20.4531C27.1406 19.4635 27.401 18.5938 27.9219 17.8438C28.4531 17.0938 29.1823 16.5052 30.1094 16.0781C31.0365 15.651 32.0938 15.4375 33.2812 15.4375C33.9583 15.4375 34.625 15.5104 35.2812 15.6562C35.9479 15.8021 36.5833 16.0052 37.1875 16.2656V15.9375C37.1875 15.3854 37.0208 14.9062 36.6875 14.5C36.3542 14.0938 35.901 13.776 35.3281 13.5469C34.7552 13.3073 34.1042 13.1875 33.375 13.1875C32.6562 13.1875 31.9583 13.3021 31.2812 13.5312C30.6042 13.75 29.9844 14.0677 29.4219 14.4844L28.0781 10.6562C29.1823 10.125 30.2812 9.72917 31.375 9.46875C32.4792 9.19792 33.5417 9.0625 34.5625 9.0625C36.1354 9.0625 37.5 9.36979 38.6562 9.98438C39.8229 10.599 40.724 11.4688 41.3594 12.5938C41.9948 13.7083 42.3125 15.0312 42.3125 16.5625V25ZM33.9062 21.4844C34.4375 21.4844 34.9479 21.3698 35.4375 21.1406C35.9375 20.901 36.3438 20.5885 36.6562 20.2031C36.9792 19.8177 37.1458 19.4062 37.1562 18.9688V18.9062C36.7396 18.6354 36.276 18.4323 35.7656 18.2969C35.2552 18.151 34.7448 18.0781 34.2344 18.0781C33.474 18.0781 32.8646 18.2344 32.4062 18.5469C31.9479 18.849 31.7188 19.2552 31.7188 19.7656C31.7188 20.0885 31.8125 20.3854 32 20.6562C32.1875 20.9167 32.4479 21.1198 32.7812 21.2656C33.1146 21.4115 33.4896 21.4844 33.9062 21.4844ZM50.6094 25H45.4844V9.375H49.9375L50.1094 11.9531C50.6302 11.0365 51.3229 10.3281 52.1875 9.82812C53.0521 9.31771 54.0417 9.0625 55.1562 9.0625C55.5 9.0625 55.849 9.08854 56.2031 9.14062C56.5677 9.19271 56.9323 9.27083 57.2969 9.375L56.6719 13.9844C55.9427 13.7552 55.2604 13.6406 54.625 13.6406C53.8125 13.6406 53.1042 13.8177 52.5 14.1719C51.8958 14.526 51.4271 15.0208 51.0938 15.6562C50.7708 16.2917 50.6094 17.0417 50.6094 17.9062V25ZM75.0469 25H69.9219V17.2344C69.9219 16.099 69.6771 15.2188 69.1875 14.5938C68.6979 13.9688 68.0208 13.6562 67.1562 13.6562C66.2604 13.6562 65.5521 13.9792 65.0312 14.625C64.5208 15.2708 64.2656 16.1615 64.2656 17.2969V25H59.1406V9.375H63.2344L63.4062 11.875C63.9583 10.9583 64.6823 10.2604 65.5781 9.78125C66.4844 9.30208 67.5469 9.0625 68.7656 9.0625C70.724 9.0625 72.2604 9.67188 73.375 10.8906C74.4896 12.099 75.0469 13.776 75.0469 15.9219V25ZM88.9062 25H83.4062V6.35938H76.7031V1.5625H95.6094V6.35938H88.9062V25ZM102.672 25.3125C101.036 25.3125 99.5781 24.9635 98.2969 24.2656C97.026 23.5573 96.026 22.5938 95.2969 21.375C94.5677 20.1458 94.2031 18.75 94.2031 17.1875C94.2031 15.625 94.5677 14.2344 95.2969 13.0156C96.026 11.7865 97.026 10.8229 98.2969 10.125C99.5781 9.41667 101.036 9.0625 102.672 9.0625C104.286 9.0625 105.724 9.41667 106.984 10.125C108.255 10.8229 109.25 11.7865 109.969 13.0156C110.698 14.2344 111.062 15.625 111.062 17.1875C111.062 18.75 110.698 20.1458 109.969 21.375C109.25 22.5938 108.255 23.5573 106.984 24.2656C105.724 24.9635 104.286 25.3125 102.672 25.3125ZM102.641 20.7188C103.245 20.7188 103.786 20.5677 104.266 20.2656C104.745 19.9635 105.12 19.5417 105.391 19C105.672 18.4583 105.812 17.8438 105.812 17.1562C105.812 16.4896 105.672 15.8906 105.391 15.3594C105.12 14.8281 104.745 14.4115 104.266 14.1094C103.786 13.8073 103.245 13.6562 102.641 13.6562C102.026 13.6562 101.479 13.8073 101 14.1094C100.521 14.4115 100.141 14.8281 99.8594 15.3594C99.5885 15.8906 99.4531 16.4896 99.4531 17.1562C99.4531 17.8438 99.5885 18.4583 99.8594 19C100.141 19.5417 100.521 19.9635 101 20.2656C101.479 20.5677 102.026 20.7188 102.641 20.7188ZM113.672 25V1.5625H121.656C124.479 1.5625 126.927 2.04688 129 3.01562C131.073 3.97396 132.682 5.33333 133.828 7.09375C134.974 8.84375 135.547 10.9062 135.547 13.2812C135.547 15.6458 134.974 17.7083 133.828 19.4688C132.682 21.2292 131.073 22.5938 129 23.5625C126.927 24.5208 124.479 25 121.656 25H113.672ZM119.172 20.2031H121.844C123.573 20.2031 125.036 19.9375 126.234 19.4062C127.432 18.8646 128.344 18.0781 128.969 17.0469C129.604 16.0156 129.922 14.7604 129.922 13.2812C129.922 11.8021 129.604 10.5469 128.969 9.51562C128.344 8.48438 127.432 7.70312 126.234 7.17188C125.036 6.63021 123.573 6.35938 121.844 6.35938H119.172V20.2031ZM152.922 23.2969C150.974 24.6406 148.854 25.3125 146.562 25.3125C144.833 25.3125 143.276 24.9479 141.891 24.2188C140.516 23.4792 139.427 22.4792 138.625 21.2188C137.823 19.9479 137.422 18.5208 137.422 16.9375C137.422 15.4271 137.781 14.0833 138.5 12.9062C139.219 11.7188 140.198 10.7812 141.438 10.0938C142.688 9.40625 144.099 9.0625 145.672 9.0625C147.307 9.0625 148.745 9.44271 149.984 10.2031C151.224 10.9635 152.188 12.0208 152.875 13.375C153.573 14.7188 153.922 16.2812 153.922 18.0625V18.5625H142.922C143.109 19.0729 143.391 19.526 143.766 19.9219C144.151 20.3177 144.63 20.6354 145.203 20.875C145.776 21.1042 146.432 21.2188 147.172 21.2188C148.703 21.2188 150.141 20.724 151.484 19.7344L152.922 23.2969ZM142.703 16.25H149.203C149.141 15.6667 148.964 15.151 148.672 14.7031C148.38 14.2552 147.995 13.9062 147.516 13.6562C147.047 13.4062 146.521 13.2812 145.938 13.2812C145.344 13.2812 144.818 13.4167 144.359 13.6875C143.911 13.9479 143.542 14.3021 143.25 14.75C142.969 15.1875 142.786 15.6875 142.703 16.25ZM172.391 9.375L166.062 25H161.109L154.797 9.375H160.281L163.594 19.8594L166.922 9.375H172.391Z" fill="white"/>
</svg>
